<svg width="1920" height="349" viewBox="0 0 1920 349" fill="none" xmlns="http://www.w3.org/2000/svg">
<path d="M1933.71 284.608L1887.52 289.185C1841.33 293.762 1748.94 302.917 1656.98 313.902C1564.8 324.735 1473.28 337.552 1381.1 343.807C1289.14 350.215 1196.75 350.215 1104.8 346.401C1012.62 342.587 921.093 334.958 828.919 332.669C736.96 330.381 644.572 333.432 552.613 330.075C460.439 326.871 368.91 317.106 276.736 318.174C184.777 319.242 92.3887 330.838 46.1944 336.789L0.00010669 342.587L0.000122724 219L46.1944 219C92.3887 219 184.777 219 276.736 219C368.91 219 460.439 219 552.613 219C644.572 219 736.96 219 828.919 219C921.093 219 1012.62 219 1104.8 219C1196.75 219 1289.14 219 1381.1 219C1473.28 219 1564.8 219 1656.98 219C1748.94 219 1841.33 219 1887.52 219L1933.71 219L1933.71 284.608Z" fill="#365089"/>
<path d="M0 93.5509L64.4571 98.2479C128.914 102.818 257.829 112.212 386.743 101.422C515.657 90.6311 644.571 59.6563 773.486 44.2958C902.4 28.8084 1031.31 28.8084 1160.23 19.2874C1289.14 9.76647 1418.06 -9.27544 1546.97 5.32335C1675.89 19.9222 1804.8 68.1617 1869.26 92.2814L1933.71 116.401V237H1869.26C1804.8 237 1675.89 237 1546.97 237C1418.06 237 1289.14 237 1160.23 237C1031.31 237 902.4 237 773.486 237C644.571 237 515.657 237 386.743 237C257.829 237 128.914 237 64.4571 237H0V93.5509Z" fill="#0E214A"/>
<path d="M0 106.847L64.4571 107.862C128.914 109.005 257.829 111.036 386.743 102.023C515.657 92.8825 644.571 72.5711 773.486 61.146C902.4 49.7209 1031.31 47.1819 1160.23 41.8502C1289.14 36.6454 1418.06 28.5209 1546.97 34.7412C1675.89 40.8346 1804.8 61.146 1869.26 71.3017L1933.71 81.4574V236.332H1869.26C1804.8 236.332 1675.89 236.332 1546.97 236.332C1418.06 236.332 1289.14 236.332 1160.23 236.332C1031.31 236.332 902.4 236.332 773.486 236.332C644.571 236.332 515.657 236.332 386.743 236.332C257.829 236.332 128.914 236.332 64.4571 236.332H0V106.847Z" fill="#162A56"/>
<path d="M0 141.79L64.4571 135.824C128.914 129.984 257.829 118.051 386.743 107.261C515.657 96.4706 644.571 86.8227 773.486 84.0299C902.4 81.2371 1031.31 85.5532 1160.23 89.7425C1289.14 93.9317 1418.06 98.2478 1546.97 104.087C1675.89 110.054 1804.8 117.671 1869.26 121.479L1933.71 125.287V237H1869.26C1804.8 237 1675.89 237 1546.97 237C1418.06 237 1289.14 237 1160.23 237C1031.31 237 902.4 237 773.486 237C644.571 237 515.657 237 386.743 237C257.829 237 128.914 237 64.4571 237H0V141.79Z" fill="#1E3363"/>
<path d="M0 94.8203L64.4571 98.3748C128.914 102.056 257.829 109.165 386.743 109.8C515.657 110.435 644.571 104.595 773.486 102.437C902.4 100.279 1031.31 102.056 1160.23 105.611C1289.14 109.165 1418.06 114.751 1546.97 118.305C1675.89 121.86 1804.8 123.637 1869.26 124.399L1933.71 125.287V237H1869.26C1804.8 237 1675.89 237 1546.97 237C1418.06 237 1289.14 237 1160.23 237C1031.31 237 902.4 237 773.486 237C644.571 237 515.657 237 386.743 237C257.829 237 128.914 237 64.4571 237H0V94.8203Z" fill="#263D6F"/>
<path d="M0 153.216L64.4571 154.866C128.914 156.643 257.829 159.944 386.743 155.374C515.657 150.677 644.571 137.982 773.486 136.078C902.4 134.174 1031.31 143.06 1160.23 154.231C1289.14 165.529 1418.06 178.986 1546.97 179.24C1675.89 179.493 1804.8 166.291 1869.26 159.817L1933.71 153.216V237H1869.26C1804.8 237 1675.89 237 1546.97 237C1418.06 237 1289.14 237 1160.23 237C1031.31 237 902.4 237 773.486 237C644.571 237 515.657 237 386.743 237C257.829 237 128.914 237 64.4571 237H0V153.216Z" fill="#2E467C"/>
<path d="M0 215.419L64.4571 216.308C128.914 217.069 257.829 218.847 386.743 217.958C515.657 217.069 644.571 213.769 773.486 205.009C902.4 196.377 1031.31 182.413 1160.23 177.97C1289.14 173.527 1418.06 178.605 1546.97 183.429C1675.89 188.38 1804.8 192.95 1869.26 195.362L1933.71 197.647V237H1869.26C1804.8 237 1675.89 237 1546.97 237C1418.06 237 1289.14 237 1160.23 237C1031.31 237 902.4 237 773.486 237C644.571 237 515.657 237 386.743 237C257.829 237 128.914 237 64.4571 237H0V215.419Z" fill="#365089"/>
</svg>
