<svg width="622" height="587" viewBox="0 0 622 587" fill="none" xmlns="http://www.w3.org/2000/svg">
<path d="M415.286 132.186C439.371 188.098 439.825 237.646 455.73 289.467C471.635 341.742 502.991 396.745 498.447 455.384C493.903 514.478 453.004 576.754 401.198 585.391C349.847 593.573 287.135 548.117 211.699 525.843C136.263 503.569 48.1029 504.478 27.199 466.749C5.84059 429.474 51.7384 354.015 93.5463 305.377C135.809 256.738 173.527 235.827 205.792 181.279C238.511 126.731 266.231 38.9989 303.949 26.2709C342.122 13.543 390.746 76.2735 415.286 132.186Z" fill="#D2D8E5"/>
<path d="M104.387 497.872C104.387 497.872 95.4255 475.802 122.308 459.249L104.387 497.872Z" fill="#F0F0F0"/>
<path d="M93.366 497.47C93.366 497.47 90.6326 481.74 69.4753 481.875L93.366 497.47Z" fill="#F0F0F0"/>
<path d="M404.425 497.872C404.425 497.872 395.464 475.802 422.346 459.249L404.425 497.872Z" fill="#F0F0F0"/>
<path d="M393.404 497.47C393.404 497.47 390.671 481.74 369.513 481.875L393.404 497.47Z" fill="#F0F0F0"/>
<path d="M397.044 354.971C440.062 354.971 474.936 320.077 474.936 277.033C474.936 233.989 440.062 199.095 397.044 199.095C354.025 199.095 319.151 233.989 319.151 277.033C319.151 320.077 354.025 354.971 397.044 354.971Z" fill="#F0F0F0"/>
<path d="M397.257 277.033H397.472L401.324 498H393.192L397.257 277.033Z" fill="#F0F0F0"/>
<path d="M564.278 393.679C595.655 393.679 621.091 368.228 621.091 336.833C621.091 305.438 595.655 279.987 564.278 279.987C532.901 279.987 507.466 305.438 507.466 336.833C507.466 368.228 532.901 393.679 564.278 393.679Z" fill="#F0F0F0"/>
<path d="M564.434 336.833H564.59L567.399 498H561.468L564.434 336.833Z" fill="#F0F0F0"/>
<path d="M249.677 337.41C250.765 337.285 251.813 336.923 252.746 336.349C253.679 335.775 254.475 335.003 255.078 334.088C255.681 333.173 256.076 332.137 256.235 331.053C256.395 329.968 256.315 328.862 256 327.812L277.597 312.227L264.661 307.311L246.136 322.865C244.408 323.51 242.977 324.766 242.113 326.397C241.249 328.027 241.013 329.918 241.449 331.711C241.886 333.504 242.964 335.074 244.481 336.125C245.997 337.175 247.846 337.633 249.677 337.41Z" fill="#FFB6B6"/>
<path d="M233.844 490.292L226.987 490.291L223.724 463.826H233.846L233.844 490.292Z" fill="#FFB6B6"/>
<path d="M235.593 496.943L213.482 496.942V496.662C213.482 494.378 214.389 492.188 216.003 490.573C217.617 488.958 219.806 488.051 222.088 488.051L235.593 488.051L235.593 496.943Z" fill="#2F2E41"/>
<path d="M181.465 490.292L174.608 490.291L171.346 463.826H181.467L181.465 490.292Z" fill="#FFB6B6"/>
<path d="M183.215 496.943L161.103 496.942V496.662C161.103 494.378 162.01 492.188 163.624 490.573C165.238 488.958 167.427 488.051 169.71 488.051L183.215 488.051L183.215 496.943Z" fill="#2F2E41"/>
<path d="M186.762 343.122L172.23 422.643L167.147 485.806L183.649 484.994L193.043 423.658L216.393 370.252L223.342 484.846L238.534 484.895L246.708 339.942L186.762 343.122Z" fill="#2F2E41"/>
<path d="M248.568 252.104L228.199 243.994L204.831 246.67L185.021 257.627C185.021 257.627 191.081 333.67 182.297 351.507C182.297 351.507 189.335 361.261 218.011 358.88C218.011 358.88 245.944 355.348 246.636 346.183C247.329 337.017 247.475 320.354 247.475 320.354L257.171 286.922L248.568 252.104Z" fill="#203D7C"/>
<path d="M192.983 259.091L185.021 257.627C185.021 257.627 176.548 261.344 176.635 272.42C176.722 283.497 161.668 320.631 179.679 322.187C197.69 323.744 192.983 295.854 192.983 295.854V259.091Z" fill="#203D7C"/>
<path d="M242.108 256.822L248.568 252.104C248.568 252.104 258.432 254.333 262.08 262.278C262.08 262.278 302.53 291.632 291.404 302.764C280.278 313.896 257.599 327.598 257.599 327.598L249.201 318.084L270.035 299.2L252.944 283.621L242.108 256.822Z" fill="#203D7C"/>
<path d="M231.778 222.911C231.775 227.347 230.012 231.6 226.876 234.736C223.74 237.871 219.488 239.633 215.055 239.633C210.622 239.633 206.37 237.871 203.234 234.736C200.098 231.6 198.335 227.347 198.332 222.911V222.269C198.503 217.892 200.383 213.757 203.567 210.752C206.752 207.747 210.987 206.11 215.363 206.194C219.74 206.278 223.909 208.076 226.976 211.202C230.042 214.327 231.762 218.531 231.765 222.911H231.778Z" fill="#FFB6B6"/>
<path d="M217.597 220.214C218.667 220.038 219.826 219.871 220.785 220.363C222.869 221.43 222.39 224.452 223.528 226.448C223.977 227.24 224.705 227.886 225.004 228.743C225.304 229.599 225.12 230.669 225.59 231.496C226.271 232.69 228.115 232.866 229.326 232.155C230.472 231.361 231.302 230.19 231.671 228.845C232.073 227.706 232.411 226.448 233.383 225.703C233.736 225.501 234.053 225.242 234.32 224.936C234.521 224.531 234.598 224.075 234.542 223.626C234.542 220.732 234.093 218.488 234.748 215.684C235.796 211.162 236.755 208.927 233.434 205.575C231.734 203.879 229.546 202.759 227.178 202.372C225.038 202.021 221.889 205.009 219.724 204.941C214.216 204.723 209.569 199.619 204.319 201.267C202.023 201.989 200.033 203.455 198.662 205.433C196.094 209.218 196.325 210.683 196.697 215.2C196.692 215.543 196.792 215.879 196.984 216.163C197.177 216.394 197.489 216.519 197.677 216.754C197.88 217.065 197.956 217.442 197.891 217.807C197.834 218.543 197.662 219.265 197.382 219.948C197.312 220.062 197.268 220.191 197.255 220.325C197.241 220.458 197.258 220.593 197.305 220.719C197.41 220.862 197.561 220.965 197.733 221.01C199.873 221.781 202.183 220.295 204.473 220.334C206.762 220.372 208.936 221.905 211.298 221.571C213.382 221.25 215.496 220.56 217.597 220.214Z" fill="#2F2E41"/>
<path d="M217.486 313.237C217.344 313.292 217.195 313.33 217.044 313.351L198.475 315.945C198.025 316.009 197.568 315.919 197.177 315.688C196.786 315.458 196.485 315.101 196.323 314.676L180.34 273.061C180.236 272.791 180.192 272.503 180.21 272.215C180.228 271.927 180.308 271.646 180.444 271.391C180.58 271.137 180.77 270.915 181 270.741C181.23 270.566 181.494 270.443 181.776 270.38L199.239 266.481C199.373 266.451 199.504 266.403 199.626 266.339L216.611 257.454C216.742 257.385 216.881 257.331 217.024 257.293L235.716 252.307C236.195 252.179 236.704 252.232 237.146 252.457C237.587 252.683 237.929 253.064 238.106 253.527L252.043 289.813C252.166 290.129 252.206 290.472 252.16 290.807C252.114 291.143 251.983 291.462 251.78 291.733L246.96 298.21C246.733 298.514 246.424 298.749 246.07 298.885L235.536 302.935C235.461 302.964 235.388 302.999 235.317 303.039L217.765 313.105C217.675 313.156 217.582 313.2 217.486 313.237Z" fill="white"/>
<path d="M226.126 257.855L223.752 258.488L217.462 260.167L217.451 260.169L208.839 264.675L205.643 266.347L205.642 266.348L200.842 268.859L200.71 268.888L195.724 270.001L193.314 270.54L183.485 272.734L198.915 312.909L209.044 311.495L211.527 311.147L216.821 310.407L216.882 310.399L233.892 300.645L244.241 296.665L248.966 290.316L235.534 255.345L226.126 257.855Z" fill="#E4E4E4"/>
<path d="M237.747 261.107L186.576 280.784L187.453 283.065L238.623 263.389L237.747 261.107Z" fill="white"/>
<path d="M240.668 268.712L189.497 288.389L190.374 290.67L241.544 270.994L240.668 268.712Z" fill="white"/>
<path d="M246.568 284.074L195.398 303.751L196.274 306.032L247.444 286.356L246.568 284.074Z" fill="white"/>
<path d="M226.125 257.855L241.445 297.74L239.165 298.617L223.752 258.488L226.125 257.855Z" fill="white"/>
<path d="M208.839 264.675L205.693 273.433L204.603 276.47L202.058 283.559L201.513 285.074L200.967 286.597L200.249 288.595L195.092 302.956L193.752 299.465L197.956 287.755L198.908 285.103L199.047 284.717L200.172 281.582L201.591 277.629L202.682 274.59L205.641 266.348L205.643 266.347L208.839 264.675Z" fill="white"/>
<path d="M195.724 270.001L211.527 311.147L209.044 311.495L193.314 270.54L195.724 270.001Z" fill="white"/>
<path d="M192.341 309.401C196.359 309.401 199.616 306.142 199.616 302.122C199.616 298.102 196.359 294.843 192.341 294.843C188.324 294.843 185.067 298.102 185.067 302.122C185.067 306.142 188.324 309.401 192.341 309.401Z" fill="#FFB6B6"/>
<path d="M492.727 258.697C564.122 258.697 622 200.786 622 129.349C622 57.9114 564.122 0 492.727 0C421.331 0 363.453 57.9114 363.453 129.349C363.453 200.786 421.331 258.697 492.727 258.697Z" fill="#E4E4E4"/>
<path opacity="0.1" d="M588.178 42.9539C600.236 71.1769 601.872 102.77 592.793 132.089C583.714 161.408 564.512 186.541 538.618 202.998C512.723 219.454 481.825 226.162 451.443 221.922C421.061 217.682 393.176 202.771 372.77 179.853C380.136 197.096 391.161 212.53 405.081 225.087C419 237.643 435.482 247.022 453.383 252.572C471.285 258.123 490.178 259.713 508.755 257.232C527.331 254.751 545.147 248.258 560.966 238.204C576.786 228.15 590.233 214.775 600.373 199.005C610.514 183.235 617.107 165.448 619.696 146.875C622.284 128.303 620.806 109.389 615.364 91.4449C609.921 73.5007 600.645 56.9549 588.178 42.9539Z" fill="black"/>
<path d="M492.372 129.348H492.016L485.623 496.074H499.119L492.372 129.348Z" fill="#E4E4E4"/>
<path d="M586.726 497.638H0.702665C0.516307 497.638 0.337581 497.563 0.205805 497.432C0.0740301 497.3 0 497.121 0 496.934C0 496.748 0.0740301 496.569 0.205805 496.437C0.337581 496.305 0.516307 496.231 0.702665 496.231H586.726C586.912 496.231 587.091 496.305 587.222 496.437C587.354 496.569 587.428 496.748 587.428 496.934C587.428 497.121 587.354 497.3 587.222 497.432C587.091 497.563 586.912 497.638 586.726 497.638Z" fill="#CACACA"/>
</svg>
