<svg width="973" height="872" viewBox="0 0 973 872" fill="none" xmlns="http://www.w3.org/2000/svg">
<path d="M798.844 75.2655C858.137 135.987 879.953 236.796 886.106 326.994C892.818 417.191 884.427 496.188 852.543 556.909C820.659 617.631 765.282 660.077 709.904 719.619C653.967 779.161 598.589 856.389 534.262 869.948C469.375 882.918 396.097 832.219 320.582 779.161C245.627 726.104 168.993 670.688 138.228 594.05C106.903 517.411 121.447 418.96 151.093 328.173C181.299 236.796 227.168 153.083 294.851 95.3094C363.094 37.5357 453.153 6.8803 547.127 0.985024C641.101 -4.91025 738.991 15.1337 798.844 75.2655Z" fill="#EEEEFF"/>
<g clip-path="url(#clip0_8_397)">
<path d="M105.695 530.862C101.493 531.314 96.905 531.992 92.0245 532.989C71.3456 537.203 70.9068 551.24 71.0929 554.457L70.9467 554.363C68.8721 557.7 67.5689 561.076 66.771 564.253L65.8268 521.225C66.4385 519.949 66.9971 518.5 67.4625 517.025C69.0051 521.797 71.5451 526.29 73.7393 525.997C76.5852 525.612 77.8219 517.237 77.29 511.296C80.9071 515.948 86.9978 520.933 89.2984 519.391C91.1336 518.168 90.0431 513.117 88.0483 508.518C92.224 511.03 96.8518 512.678 98.2881 511.083C100.243 508.903 95.5486 501.473 91.2266 497.325C97.0114 497.87 104.379 496.94 104.871 494.308C105.27 492.141 100.881 489.403 96.1869 487.635C100.895 486.399 105.31 484.232 105.163 482.092C104.99 479.553 98.4476 477.838 92.7958 477.586C97.0513 474.263 100.961 469.65 99.7642 467.577C98.6604 465.663 93.5539 466.407 88.8329 468.095C91.6256 464.107 93.5937 459.601 92.091 458.059C90.2293 456.145 83.62 459.455 79.0986 463.11C79.9762 457.408 79.5374 450.217 76.9708 449.565C74.8298 449.02 71.7978 453.207 69.7232 457.767C68.8056 452.981 66.9439 448.435 64.8028 448.435C61.7442 448.435 59.2707 457.647 59.2707 463.655C59.2707 464.001 59.2707 464.32 59.2973 464.626C58.9915 464.267 58.6324 463.895 58.2335 463.509C53.9248 459.322 45.5867 454.683 43.4457 456.876C41.9563 458.418 43.9111 462.911 46.7038 466.912C41.9829 465.224 36.863 464.48 35.7725 466.394C34.2964 468.959 40.6131 475.379 45.7463 478.49C45.4404 478.45 45.108 478.423 44.7622 478.397C38.7647 477.985 29.4026 479.832 29.1899 482.876C29.0436 485.016 33.4453 487.183 38.1663 488.419C33.4719 490.187 29.0968 492.925 29.4824 495.092C29.9612 497.724 37.3285 498.655 43.1265 498.11C38.8046 502.257 34.1103 509.687 36.0651 511.867C37.5013 513.462 42.1292 511.814 46.3048 509.302C44.2968 513.901 43.2196 518.952 45.0548 520.175C47.4751 521.797 54.1376 516.148 57.635 511.296C57.276 517.237 58.6989 525.399 61.5181 525.718C62.7017 525.851 63.9517 524.588 65.0821 522.661L61.8905 568.905C61.1458 574.289 65.9199 577.811 66.3454 580.018L67.037 611.335C66.2524 609.102 65.2151 606.816 63.7922 604.556L63.6459 604.649C63.8321 601.432 63.3932 587.395 42.7143 583.182C37.8338 582.185 33.2459 581.507 29.0436 581.055C24.0833 580.523 22.1417 587.316 26.6233 589.509C33.1129 592.686 39.2168 596.687 42.4084 601.419C50.547 613.528 61.7841 606.537 63.3932 605.447C65.1752 608.424 66.3454 611.415 67.0901 614.259L67.4625 630.888C67.3694 631.287 67.3162 631.5 67.3029 631.513L67.4758 631.566L68.3668 671.816L76.5852 671.75L73.6462 630.609C74.1383 628.389 75.6543 620.826 73.6462 612.983L70.7073 580.656L66.8774 567.948C67.4359 564.014 68.7258 559.601 71.3589 555.227C72.9547 556.317 84.2051 563.323 92.3437 551.2C95.522 546.468 101.639 542.467 108.129 539.29C112.61 537.096 110.682 530.304 105.709 530.836L105.695 530.862ZM68.154 626.09L67.9944 619.045C68.3003 621.703 68.287 624.109 68.154 626.09Z" fill="#F2F2F2"/>
<path d="M0 673.757C0 674.634 0.704812 675.339 1.5825 675.339H971.417C972.295 675.339 973 674.634 973 673.757C973 672.879 972.295 672.175 971.417 672.175H1.5825C0.704812 672.175 0 672.879 0 673.757Z" fill="#3F3D56"/>
<path d="M588.558 675.152C628.218 675.152 660.369 643.016 660.369 603.373C660.369 563.73 628.218 531.593 588.558 531.593C548.898 531.593 516.747 563.73 516.747 603.373C516.747 643.016 548.898 675.152 588.558 675.152Z" fill="#3F3D56"/>
<path d="M588.558 651.226C614.998 651.226 636.432 629.801 636.432 603.373C636.432 576.944 614.998 555.52 588.558 555.52C562.118 555.52 540.684 576.944 540.684 603.373C540.684 629.801 562.118 651.226 588.558 651.226Z" fill="white"/>
<path d="M588.558 630.623C603.614 630.623 615.82 618.423 615.82 603.373C615.82 588.323 603.614 576.123 588.558 576.123C573.502 576.123 561.297 588.323 561.297 603.373C561.297 618.423 573.502 630.623 588.558 630.623Z" fill="#3F3D56"/>
<path d="M173.65 675.152C213.31 675.152 245.461 643.016 245.461 603.373C245.461 563.73 213.31 531.593 173.65 531.593C133.99 531.593 101.839 563.73 101.839 603.373C101.839 643.016 133.99 675.152 173.65 675.152Z" fill="#3F3D56"/>
<path d="M173.65 651.226C200.09 651.226 221.524 629.801 221.524 603.373C221.524 576.944 200.09 555.52 173.65 555.52C147.21 555.52 125.776 576.944 125.776 603.373C125.776 629.801 147.21 651.226 173.65 651.226Z" fill="white"/>
<path d="M686.793 569.238C677.444 545.67 644.757 473.665 586.537 449.831C586.085 449.645 585.619 449.525 585.14 449.459L398.418 422.728C395.347 422.289 392.474 424.389 391.982 427.46L388.711 447.664C388.485 449.047 388.777 450.469 389.535 451.652C399.017 466.354 459.79 566.167 362.473 566.167C265.156 566.167 238.333 496.554 234.077 484.259C233.679 483.102 233.665 481.853 234.024 480.683L263.52 387.303C264.039 385.642 263.759 383.94 262.908 382.584L275.874 358.512L299.625 371.95L311.926 372.097L353.909 394.029L362.46 380.072L275.874 336.898C275.874 336.898 276.02 326.902 248.094 318.927L204.209 298.988L198.89 305.634L212.188 316.268L213.518 324.244L222.827 326.902L241.445 362.792L236.125 373.08L242.588 376.231L240.74 375.805C238.067 375.194 235.341 376.576 234.25 379.088L204.914 446.295C204.462 447.319 203.717 448.196 202.773 448.808L192.321 455.547C191.35 456.172 190.579 457.089 190.14 458.166L178.198 487.103C177.825 488.007 177.719 488.951 177.812 489.868C162.931 492.686 119.193 504.862 95.163 552.888L123.089 575.485C123.089 575.485 166.868 547.172 239.211 576.655C251.791 596.222 270.129 612.452 296.62 613.98C366.449 618.021 482.145 622.009 495.443 606.058C505.178 594.374 511.946 587.09 514.885 584.019C515.923 582.942 517.332 582.318 518.822 582.264L681.66 577.067C685.609 576.947 688.229 572.933 686.78 569.264L686.793 569.238Z" fill="#203D7C"/>
<path d="M237.482 360.12C249.233 360.12 258.759 350.598 258.759 338.852C258.759 327.106 249.233 317.584 237.482 317.584C225.731 317.584 216.204 327.106 216.204 338.852C216.204 350.598 225.731 360.12 237.482 360.12Z" fill="#3F3D56"/>
<path d="M578.225 449.924C577.973 449.924 577.72 449.924 577.467 449.911L399.562 443.025C391.689 442.72 384.947 437.708 382.381 430.265L379.947 423.18C377.966 417.411 378.83 411.216 382.314 406.205C385.812 401.194 391.317 398.243 397.421 398.097L581.231 393.87C586.922 393.737 592.401 396.169 596.112 400.556C599.822 404.942 601.338 410.685 600.261 416.334L596.79 434.518C595.074 443.544 587.321 449.911 578.212 449.911L578.225 449.924Z" fill="#3F3D56"/>
<path d="M173.65 630.623C188.706 630.623 200.911 618.423 200.911 603.373C200.911 588.323 188.706 576.123 173.65 576.123C158.594 576.123 146.388 588.323 146.388 603.373C146.388 618.423 158.594 630.623 173.65 630.623Z" fill="#3F3D56"/>
<path d="M649.704 525.798C645.448 525.798 641.392 523.525 639.225 519.604L625.754 495.225C623.613 491.357 623.746 486.824 626.086 483.089C628.427 479.341 632.469 477.24 636.858 477.48L661.313 478.729C665.861 478.968 669.957 481.826 671.739 486.027L678.88 502.908C680.184 506.005 680.157 509.382 678.787 512.452C677.418 515.509 674.918 517.809 671.753 518.899L653.64 525.147C652.35 525.598 651.02 525.811 649.717 525.811L649.704 525.798Z" fill="#3F3D56"/>
<path d="M340.451 687.82C340.251 687.82 340.039 687.82 339.839 687.78L334.413 687.182C332.645 686.983 331.102 685.986 330.198 684.444C329.294 682.902 329.174 681.081 329.865 679.433L358.111 612.385C358.882 610.551 360.598 609.248 362.579 608.996C364.508 608.756 366.383 609.514 367.619 611.016C368.843 612.518 369.215 614.512 368.59 616.346L345.784 683.992C345.012 686.278 342.831 687.807 340.464 687.807L340.451 687.82Z" fill="#3F3D56"/>
<path d="M487.092 219.937C487.092 219.937 476.759 199.281 478.82 180.698L444.431 198.51L445.761 232.326L487.092 219.937Z" fill="#A0616A"/>
<path d="M465.748 208.054C482.883 208.054 496.773 194.169 496.773 177.042C496.773 159.915 482.883 146.031 465.748 146.031C448.613 146.031 434.723 159.915 434.723 177.042C434.723 194.169 448.613 208.054 465.748 208.054Z" fill="#A0616A"/>
<path d="M497.438 663.974H478.501L469.498 590.984H497.438V663.974Z" fill="#A0616A"/>
<path d="M432.582 663.535C431.997 664.532 431.678 667.735 431.678 668.878C431.678 672.428 434.55 675.299 438.101 675.299H496.72C499.14 675.299 501.108 673.331 501.108 670.912V668.466C501.108 668.466 504.007 661.129 498.036 652.103C498.036 652.103 490.616 659.175 479.525 648.102L476.254 642.187L452.583 659.494L439.457 661.102C436.585 661.461 434.045 661.049 432.569 663.535H432.582Z" fill="#2F2E41"/>
<path d="M441.625 219.937L487.092 213.743L522.226 230.266L524.287 358.326C524.287 358.326 437.875 368.654 424.257 355.228C410.64 341.803 420.972 234.399 420.972 234.399L441.638 219.937H441.625Z" fill="#E6E6E6"/>
<path d="M457.982 184.938H449.644C449.644 184.938 442.409 176.032 443.38 181.455C444.351 186.879 440.455 192.714 440.455 192.714L434.617 190.773C434.617 190.773 422.941 141.684 457.982 138.986C493.023 136.287 500.816 163.537 500.816 163.537C500.816 163.537 498.874 177.162 494.978 173.267C491.081 169.372 469.671 167.432 469.671 167.432L457.995 184.951L457.982 184.938Z" fill="#2F2E41"/>
<path d="M435.92 647.571L417.714 652.701L389.203 584.923L416.092 577.333L435.92 647.571Z" fill="#A0616A"/>
<path d="M373.391 664.771C373.098 665.888 373.67 669.051 373.976 670.168C374.934 673.584 378.484 675.565 381.902 674.607L438.313 658.683C440.641 658.032 441.997 655.599 441.345 653.273L440.681 650.92C440.681 650.92 441.478 643.078 433.273 636.006C433.273 636.006 428.06 644.832 414.376 637.176L409.616 632.364L391.543 655.44L379.362 660.557C376.702 661.674 374.136 661.98 373.391 664.771Z" fill="#2F2E41"/>
<path d="M518.077 345.937L524.274 364.679V429.082L505.67 623.471H469.339L465.243 484.711L468.474 416.175L399.176 520.973L429.63 595.823L396.105 618.167C396.105 618.167 345.97 503.972 353.47 492.899C360.97 481.84 428.154 351.214 428.154 351.214C428.154 351.214 518.05 348.011 518.05 345.95L518.077 345.937Z" fill="#2F2E41"/>
<path d="M536.681 271.579L546.668 287.928C546.668 287.928 560.791 343.411 546.668 343.637C532.546 343.863 504.034 315.364 504.034 315.364L507.757 300.49L518.09 304.624L516.029 271.579H536.695H536.681Z" fill="#A0616A"/>
<path d="M505.683 230.013C505.683 230.013 538.743 224.191 541.841 245.818C544.94 267.445 546.668 287.942 546.668 287.942L510.843 290.906L505.683 230.013Z" fill="#E6E6E6"/>
<path d="M512.864 313.554C515.855 309.356 511.476 301.109 503.083 295.134C494.69 289.159 485.461 287.718 482.47 291.915C479.479 296.113 483.858 304.36 492.251 310.335C500.645 316.31 509.873 317.751 512.864 313.554Z" fill="#A0616A"/>
<path d="M785.241 530.862C781.038 531.314 776.451 531.992 771.57 532.989C750.891 537.203 750.452 551.24 750.638 554.457L750.492 554.363C748.418 557.7 747.114 561.076 746.316 564.253L745.372 521.225C745.984 519.949 746.542 518.5 747.008 517.025C748.551 521.797 751.091 526.29 753.285 525.997C756.131 525.612 757.367 517.237 756.835 511.296C760.453 515.948 766.543 520.933 768.844 519.391C770.679 518.168 769.589 513.117 767.594 508.518C771.77 511.03 776.397 512.678 777.833 511.083C779.788 508.903 775.094 501.473 770.772 497.325C776.557 497.87 783.924 496.94 784.416 494.308C784.815 492.141 780.427 489.403 775.732 487.635C780.44 486.399 784.855 484.232 784.709 482.092C784.536 479.553 777.993 477.838 772.341 477.586C776.597 474.263 780.507 469.65 779.31 467.577C778.206 465.663 773.099 466.407 768.378 468.095C771.171 464.107 773.139 459.601 771.636 458.059C769.775 456.145 763.165 459.455 758.644 463.11C759.522 457.408 759.083 450.217 756.516 449.565C754.375 449.02 751.343 453.207 749.269 457.767C748.351 452.981 746.489 448.435 744.348 448.435C741.29 448.435 738.816 457.647 738.816 463.655C738.816 464.001 738.816 464.32 738.843 464.626C738.537 464.267 738.178 463.895 737.779 463.509C733.47 459.322 725.132 454.683 722.991 456.876C721.502 458.418 723.457 462.911 726.249 466.912C721.528 465.224 716.408 464.48 715.318 466.394C713.842 468.959 720.159 475.379 725.292 478.49C724.986 478.45 724.653 478.423 724.308 478.397C718.31 477.985 708.948 479.832 708.735 482.876C708.589 485.016 712.991 487.183 717.712 488.419C713.017 490.187 708.642 492.925 709.028 495.092C709.507 497.724 716.874 498.655 722.672 498.11C718.35 502.257 713.656 509.687 715.611 511.867C717.047 513.462 721.675 511.814 725.85 509.302C723.842 513.901 722.765 518.952 724.6 520.175C727.021 521.797 733.683 516.148 737.181 511.296C736.821 517.237 738.244 525.399 741.064 525.718C742.247 525.851 743.497 524.588 744.628 522.661L741.436 568.905C740.691 574.289 745.465 577.811 745.891 580.018L746.582 611.335C745.798 609.102 744.76 606.816 743.338 604.556L743.191 604.649C743.377 601.432 742.939 587.395 722.26 583.182C717.379 582.185 712.791 581.507 708.589 581.055C703.629 580.523 701.687 587.316 706.169 589.509C712.658 592.686 718.762 596.687 721.954 601.419C730.092 613.528 741.33 606.537 742.939 605.447C744.721 608.424 745.891 611.415 746.636 614.259L747.008 630.888C746.915 631.287 746.862 631.5 746.848 631.513L747.021 631.566L747.912 671.816L756.131 671.75L753.192 630.609C753.684 628.389 755.2 620.826 753.192 612.983L750.253 580.656L746.423 567.948C746.981 564.014 748.271 559.601 750.904 555.227C752.5 556.317 763.751 563.323 771.889 551.2C775.067 546.468 781.185 542.467 787.674 539.29C792.156 537.096 790.228 530.304 785.254 530.836L785.241 530.862ZM747.699 626.09L747.54 619.045C747.846 621.703 747.832 624.109 747.699 626.09Z" fill="#F2F2F2"/>
<path d="M689.532 666.818L703.828 663.734L698.708 607.188L677.63 611.734L689.532 666.818Z" fill="#A0616A"/>
<path d="M738.417 655.932C739.029 656.583 739.787 658.949 739.973 659.826C740.558 662.498 738.856 665.143 736.17 665.715L691.926 675.272C690.104 675.671 688.296 674.501 687.897 672.68L687.498 670.832C687.498 670.832 684.107 665.768 687.139 657.979C687.139 657.979 693.894 662.113 700.45 651.93L701.953 646.932L722.645 656.131L732.805 655.214C735.026 655.014 736.888 654.283 738.404 655.932H738.417Z" fill="#2F2E41"/>
<path d="M715.092 662.498L727.007 654.044L700.052 604.064L682.458 616.533L715.092 662.498Z" fill="#A0616A"/>
<path d="M755.745 633.255C756.556 633.613 758.192 635.488 758.697 636.219C760.28 638.452 759.761 641.549 757.527 643.131L720.611 669.317C719.081 670.394 716.98 670.035 715.89 668.52L714.799 666.978C714.799 666.978 709.693 663.654 709.414 655.293C709.414 655.293 717.246 656.437 719.281 644.5L718.696 639.316L741.343 639.635L750.332 634.796C752.301 633.733 753.724 632.337 755.758 633.255H755.745Z" fill="#2F2E41"/>
<path d="M543.37 382.89C543.37 382.89 521.149 413.091 565.592 447.053L656.353 418.062L623.932 350.483L595.221 334.745L543.357 382.877L543.37 382.89Z" fill="#2F2E41"/>
<path d="M656.366 418.075L691.554 486.572L713.789 629.147L686.008 630.995L658.215 495.837L609.131 422.701L643.401 406.963" fill="#2F2E41"/>
<path d="M565.605 425.546V447.066L628.586 516.201C628.586 516.201 628.586 568.041 652.67 592.114L680.45 634.703L704.533 621.743L669.346 497.698L606.365 416.228L565.618 425.546H565.605Z" fill="#2F2E41"/>
<path d="M610.354 212.214L598.492 257.422L553.264 248.529C553.264 248.529 584.821 216.003 580.38 201.181L610.367 212.214H610.354Z" fill="#A0616A"/>
<path d="M575.792 219.033L603.572 231.994C603.572 231.994 617.868 240.727 618.134 246.549C618.4 252.371 616.538 280.139 616.538 280.139C616.538 280.139 627.655 291.252 620.248 313.463L623.958 350.496L540.604 394.933L548.011 317.172L544.301 244.967L575.792 219.047V219.033Z" fill="#3F3D56"/>
<path d="M550.857 429.746C554.115 437.203 560.605 441.577 565.353 439.503C570.1 437.429 571.31 429.706 568.065 422.249C566.802 419.245 564.847 416.6 562.347 414.513L548.158 383.076L533.543 390.041L549.075 420.295C548.903 423.539 549.514 426.782 550.857 429.746Z" fill="#A0616A"/>
<path d="M565.605 249.593C565.605 249.593 545.232 236.633 537.825 251.44C530.418 266.248 513.742 342.162 513.742 342.162L537.825 414.367L560.047 405.115L540.591 327.407L565.592 249.593H565.605Z" fill="#3F3D56"/>
<path d="M670.037 418.089C675.809 423.831 683.455 425.506 687.112 421.824C690.769 418.142 689.04 410.525 683.269 404.783C680.995 402.457 678.189 400.715 675.104 399.692L650.329 375.686L639.305 387.542L664.891 409.94C665.928 413.024 667.697 415.816 670.037 418.075V418.089Z" fill="#A0616A"/>
<path d="M617.349 245.166C617.349 245.166 581.829 243.717 580.393 260.214C578.97 276.71 603.253 350.323 603.253 350.323L652.257 408.585L669.505 391.796L622.788 326.716L617.362 245.166H617.349Z" fill="#3F3D56"/>
<path d="M513.343 378.836L483.674 288.806C459.684 267.684 433.659 318.554 363.803 289.71L385.772 391.544C438.593 363.004 484.046 351.825 513.343 378.836Z" fill="white"/>
<path d="M385.772 394.202C385.585 394.202 385.386 394.162 385.213 394.082C384.828 393.91 384.562 393.564 384.468 393.152L362.5 291.318C362.393 290.839 362.566 290.334 362.952 290.015C363.337 289.696 363.856 289.617 364.308 289.803C403.99 306.179 429.603 296.436 448.314 289.311C462.53 283.901 473.754 279.621 484.552 289.125C484.725 289.284 484.858 289.484 484.937 289.71L514.606 379.74C514.792 380.311 514.566 380.949 514.061 381.268C513.555 381.601 512.877 381.534 512.438 381.122C486.693 357.382 446.638 361.476 386.41 394.029C386.211 394.136 385.998 394.189 385.772 394.189V394.202ZM365.625 293.206L386.689 390.866C444.484 359.934 484.073 355.162 510.577 376.071L482.504 290.906C472.995 282.771 463.008 286.573 449.245 291.81C430.494 298.948 404.948 308.678 365.625 293.219V293.206Z" fill="#3F3D56"/>
<path d="M409.815 245.911L391.038 249.792C391.038 249.792 340.85 277.401 350.345 287.862C359.827 298.323 400.134 299.666 400.134 299.666L408.459 286.785L398.379 282.066L423.938 260.998L409.815 245.911Z" fill="#A0616A"/>
<path d="M461.359 240.129C461.359 240.129 443.021 212.015 425.108 224.536C407.195 237.058 391.051 249.792 391.051 249.792L413.366 277.959L461.373 240.129H461.359Z" fill="#E6E6E6"/>
<path d="M431.991 299.373C433.013 294.322 425.655 288.571 415.555 286.528C405.456 284.485 396.439 286.924 395.417 291.975C394.394 297.027 401.753 302.777 411.852 304.82C421.952 306.863 430.968 304.424 431.991 299.373Z" fill="#A0616A"/>
<path d="M778.791 683.926C784.99 683.926 790.015 678.903 790.015 672.707C790.015 666.511 784.99 661.488 778.791 661.488C772.592 661.488 767.567 666.511 767.567 672.707C767.567 678.903 772.592 683.926 778.791 683.926Z" fill="#3F3D56"/>
<path d="M793.752 701.325C799.95 701.325 804.975 696.303 804.975 690.107C804.975 683.911 799.95 678.888 793.752 678.888C787.553 678.888 782.528 683.911 782.528 690.107C782.528 696.303 787.553 701.325 793.752 701.325Z" fill="#3F3D56"/>
<path d="M905.963 701.325C912.162 701.325 917.187 696.303 917.187 690.107C917.187 683.911 912.162 678.888 905.963 678.888C899.764 678.888 894.739 683.911 894.739 690.107C894.739 696.303 899.764 701.325 905.963 701.325Z" fill="#3F3D56"/>
<path d="M810.188 522.222V400.396C810.188 386.758 821.598 383.382 835.242 383.382C841.932 383.382 845.176 382.611 849.871 387.37C854.565 392.128 859.778 394.109 859.672 400.795L857.703 520.335L810.175 522.209L810.188 522.222ZM836.572 391.371C824.391 391.371 812.848 388.234 812.848 400.41V519.471L855.097 517.796L857.025 400.769C857.118 394.8 847.41 395.624 843.235 391.371C839.046 387.117 842.557 391.371 836.586 391.371H836.572Z" fill="#3F3D56"/>
<path d="M776.783 520.747L775.081 653.845C775.054 655.559 775.466 657.247 776.264 658.763L788.844 682.517C790.693 686.012 794.39 688.126 798.34 687.953L908.796 683.088C914.447 682.836 918.823 678.05 918.57 672.401L911.641 520.428C911.389 514.964 906.894 510.658 901.415 510.658H787.009C781.411 510.658 776.849 515.164 776.77 520.76L776.783 520.747Z" fill="#E6E6E6"/>
<path d="M820.322 580.816L817.662 580.683L818.646 560.983C819.178 550.376 827.915 541.869 838.54 541.616L885.577 540.526C895.072 540.366 902.944 547.558 903.463 557.049L904.46 575.06L901.801 575.206L900.803 557.195C900.351 549.153 893.635 542.985 885.63 543.184L838.594 544.274C829.351 544.487 821.758 551.891 821.293 561.116L820.308 580.816H820.322Z" fill="#3F3D56"/>
<path d="M818.447 676.229L815.8 675.963L821.532 620.055C822.596 609.713 831.226 601.565 841.612 601.1L887.492 599.04C893.276 598.774 898.769 600.821 902.971 604.795C907.173 608.77 909.514 614.14 909.58 619.922L910.099 668.599L907.439 668.626L906.92 619.949C906.867 614.898 904.819 610.205 901.149 606.723C897.479 603.24 892.651 601.459 887.625 601.685L841.745 603.745C832.663 604.157 825.122 611.269 824.192 620.308L818.46 676.216L818.447 676.229Z" fill="#3F3D56"/>
<path d="M797.887 672.361L795.228 672.321L796.903 544.554C797.023 535.82 803.951 528.775 812.688 528.51L903.117 525.851L903.197 528.51L812.768 531.168C805.454 531.381 799.656 537.269 799.563 544.58L797.887 672.348V672.361Z" fill="#3F3D56"/>
<path d="M798.127 654.164H796.278V537.801C796.278 534.119 793.286 531.115 789.589 531.115H779.256V528.456H789.589C794.47 528.456 798.486 532.218 798.898 536.977C798.925 537.243 798.938 537.522 798.938 537.801V592.898L798.127 654.164Z" fill="#3F3D56"/>
<path d="M629.663 188.048C629.663 205.089 615.846 218.9 598.798 218.9C581.749 218.9 567.932 205.089 567.932 188.048C567.932 171.007 581.749 157.197 598.798 157.197C615.846 157.197 629.663 171.007 629.663 188.048Z" fill="#A0616A"/>
<path d="M596.338 146.576C597.229 147.094 598.426 146.31 598.718 145.313C599.011 144.316 598.665 143.266 598.346 142.282C597.787 140.634 597.242 138.999 596.683 137.351C595.5 133.855 594.25 130.239 591.697 127.581C587.84 123.567 581.696 122.543 576.177 123.287C569.089 124.244 562.094 128.073 558.796 134.426C555.498 140.78 556.908 149.633 562.866 153.594C554.368 163.324 551.416 174.171 551.881 187.065C552.347 199.972 566.416 211.842 575.592 220.934C577.64 219.698 579.502 213.876 578.372 211.762C577.241 209.649 578.864 207.203 577.467 205.249C576.071 203.308 574.901 206.405 576.31 204.465C577.201 203.242 573.731 200.437 575.047 199.706C581.444 196.17 583.571 188.195 587.587 182.093C592.441 174.729 600.726 169.745 609.516 168.921C614.357 168.469 619.463 169.293 623.426 172.097C627.389 174.902 629.956 179.913 629.038 184.685C631.419 182.266 632.602 178.73 632.163 175.367C631.711 172.004 629.65 168.894 626.711 167.179C628.493 161.291 626.964 154.511 622.828 149.965C618.692 145.406 601.923 146.19 595.886 147.387L596.351 146.589L596.338 146.576Z" fill="#2F2E41"/>
<path d="M595.407 169.093C587.415 169.957 581.643 176.883 576.763 183.276C573.957 186.959 571.004 191.026 571.084 195.665C571.151 200.344 574.289 204.372 575.792 208.798C578.239 216.056 575.858 224.683 570.034 229.654C575.792 230.744 582.015 226.437 582.999 220.655C584.156 213.942 579.063 207.456 579.662 200.663C580.194 194.681 584.914 190.082 588.917 185.603C592.933 181.123 596.697 175.195 594.848 169.479L595.407 169.093Z" fill="#2F2E41"/>
</g>
<defs>
<clipPath id="clip0_8_397">
<rect width="973" height="578.264" fill="white" transform="translate(0 123.061)"/>
</clipPath>
</defs>
</svg>
